<svg xmlns="http://www.w3.org/2000/svg" width="17.983" height="17.982" viewBox="0 0 17.983 17.982">
  <path id="Path_38" data-name="Path 38" d="M440.58,289.3c-.632-.029-.822-.035-2.423-.035s-1.79.006-2.421.035a2.251,2.251,0,0,0-2.457,2.457c-.029.632-.036.822-.036,2.422s.007,1.79.035,2.422a2.252,2.252,0,0,0,2.457,2.457c.632.029.822.036,2.422.036s1.791-.006,2.423-.035a2.253,2.253,0,0,0,2.457-2.457c.028-.632.034-.822.034-2.422s-.006-1.79-.034-2.422A2.253,2.253,0,0,0,440.58,289.3Zm-2.423,7.957a3.078,3.078,0,1,1,3.078-3.078A3.078,3.078,0,0,1,438.157,297.254Zm3.2-5.558a.72.72,0,1,1,.72-.719A.719.719,0,0,1,441.357,291.7Zm-1.2,2.48a2,2,0,1,1-2-2A2,2,0,0,1,440.156,294.176Zm3.246-8.991H432.913a3.747,3.747,0,0,0-3.747,3.746v10.49a3.747,3.747,0,0,0,3.747,3.746H443.4a3.746,3.746,0,0,0,3.747-3.746v-10.49A3.747,3.747,0,0,0,443.4,285.185Zm.714,11.462a3.309,3.309,0,0,1-3.487,3.487c-.64.029-.843.036-2.472.036s-1.831-.007-2.471-.036a3.309,3.309,0,0,1-3.487-3.487c-.029-.639-.036-.843-.036-2.471s.007-1.832.036-2.471a3.309,3.309,0,0,1,3.487-3.486c.64-.03.843-.037,2.471-.037s1.832.007,2.472.036a3.309,3.309,0,0,1,3.487,3.486c.029.64.035.845.035,2.472S444.145,296.008,444.116,296.647Z" transform="translate(-429.166 -285.185)" fill="#686868"/>
</svg>
