<svg xmlns="http://www.w3.org/2000/svg" width="18.061" height="18.06" viewBox="0 0 18.061 18.06">
  <path id="Path_37" data-name="Path 37" d="M381.548,285.8H371.013a3.762,3.762,0,0,0-3.763,3.762V300.1a3.763,3.763,0,0,0,3.763,3.762h10.535a3.762,3.762,0,0,0,3.763-3.762V289.56A3.762,3.762,0,0,0,381.548,285.8Zm-8.278,14.3h-2.257v-8.278h2.257Zm-1.128-9.232a1.328,1.328,0,1,1,1.316-1.328A1.323,1.323,0,0,1,372.142,290.864ZM382.3,300.1h-2.258v-4.218c0-2.534-3.01-2.342-3.01,0V300.1h-2.258v-8.278h2.258v1.328a2.862,2.862,0,0,1,5.268,1.863Z" transform="translate(-367.25 -285.798)" fill="#686868"/>
</svg>
