<svg xmlns="http://www.w3.org/2000/svg" width="18.061" height="14.678" viewBox="0 0 18.061 14.678">
  <path id="Path_35" data-name="Path 35" d="M354.353,288.575a7.388,7.388,0,0,1-2.128.583,3.709,3.709,0,0,0,1.629-2.05,7.432,7.432,0,0,1-2.353.9,3.708,3.708,0,0,0-6.315,3.378,10.515,10.515,0,0,1-7.636-3.871,3.711,3.711,0,0,0,1.146,4.948,3.693,3.693,0,0,1-1.678-.464,3.709,3.709,0,0,0,2.972,3.68,3.713,3.713,0,0,1-1.674.063,3.709,3.709,0,0,0,3.462,2.573,7.451,7.451,0,0,1-5.486,1.535,10.538,10.538,0,0,0,16.212-9.357A7.544,7.544,0,0,0,354.353,288.575Z" transform="translate(-336.292 -286.837)" fill="#686868"/>
</svg>
